<svg xmlns="http://www.w3.org/2000/svg" width="180" height="50" viewBox="0 0 180 50">
  <!-- Ape Icon -->
  <g stroke="none">
    <!-- Head with dark outline -->
    <circle cx="25" cy="25" r="18" fill="none" stroke="currentColor" stroke-width="2"/>
    <!-- Face area - now transparent -->
    <circle cx="25" cy="25" r="14" fill="none" stroke="currentColor" stroke-width="1.5"/>
    
    <!-- Ears -->
    <circle cx="12" cy="20" r="6" fill="none" stroke="currentColor" stroke-width="1.5"/>
    <circle cx="38" cy="20" r="6" fill="none" stroke="currentColor" stroke-width="1.5"/>
    <!-- Inner ears - now transparent -->
    <circle cx="12" cy="20" r="3" fill="none" stroke="currentColor" stroke-width="1"/>
    <circle cx="38" cy="20" r="3" fill="none" stroke="currentColor" stroke-width="1"/>
    
    <!-- Eyes -->
    <circle cx="20" cy="22" r="2.5" fill="currentColor"/>
    <circle cx="30" cy="22" r="2.5" fill="currentColor"/>
    <!-- Eye shine -->
    <circle cx="21" cy="21" r="1" fill="currentColor" opacity="0.3"/>
    <circle cx="31" cy="21" r="1" fill="currentColor" opacity="0.3"/>
    
    <!-- Nose -->
    <ellipse cx="25" cy="26" rx="2" ry="1.5" fill="currentColor"/>
    
    <!-- Mouth -->
    <path d="M22,29 Q25,32 28,29" stroke="currentColor" stroke-width="2" fill="none" stroke-linecap="round"/>
    
    <!-- Eyebrows for expression -->
    <path d="M18,19 Q20,17 22,19" stroke="currentColor" stroke-width="1.5" fill="none" stroke-linecap="round"/>
    <path d="M28,19 Q30,17 32,19" stroke="currentColor" stroke-width="1.5" fill="none" stroke-linecap="round"/>
  </g>
  
  <!-- Subtle separator -->
  <line x1="52" y1="15" x2="52" y2="35" stroke="currentColor" stroke-width="2" stroke-linecap="round" opacity="0.3"/>
  
  <!-- Brand Name -->
  <text x="62" y="32" font-family="Inter, -apple-system, BlinkMacSystemFont, sans-serif" font-size="24" font-weight="700" fill="currentColor" letter-spacing="-0.02em">
    ApeEscp
  </text>
</svg>